<?xml version="1.0" encoding="UTF-8" standalone="no"?>
<!DOCTYPE svg PUBLIC "-//W3C//DTD SVG 1.1//EN" "http://www.w3.org/Graphics/SVG/1.1/DTD/svg11.dtd">
<svg width="100%" height="100%" viewBox="0 0 4000 4000" version="1.1" xmlns="http://www.w3.org/2000/svg" xmlns:xlink="http://www.w3.org/1999/xlink" xml:space="preserve" xmlns:serif="http://www.serif.com/" style="fill-rule:evenodd;clip-rule:evenodd;stroke-linejoin:round;stroke-miterlimit:2;">
    <g id="Outline" transform="matrix(0.92388,-0.382683,0.382683,0.92388,-613.796,917.373)">
        <path d="M1890.97,597.566C1894.18,533.566 1896.27,480.692 1896.27,450.349C1896.27,370.591 1854.72,338.644 1822.9,306.48C1790.83,274.056 1766.1,241.105 1766.1,188.881C1766.1,116.325 1807.04,70.937 1860.1,44.222C1906.38,20.923 1962.24,12.976 2000.86,12.458C2038.11,11.959 2093.76,19.167 2140.16,41.689C2193.47,67.569 2234.77,112.214 2234.77,183.147C2234.77,238.025 2210.19,271.988 2178.68,304.905C2146.83,338.183 2105.11,370.129 2104.6,451.189C2104.46,472.177 2107.06,527.163 2110.97,598.195C2230.28,607.771 2345.41,632.276 2454.45,669.822C2463.17,624.507 2445.99,592.743 2434.18,563.037C2418.85,524.464 2410.02,488.04 2428.56,444.175C2454.34,383.135 2504.75,359.392 2558.72,355.706C2605.18,352.534 2654.18,365.422 2686.31,378.491C2717.32,391.102 2760.84,416.574 2791.34,451.513C2826.86,492.194 2845.52,544.431 2820.29,604.151C2800.84,650.189 2768.37,670.108 2730.36,686.596C2700.37,699.608 2665.3,709.553 2638.33,748.238C2736.97,798.9 2828.86,860.877 2912.24,932.445C2961.02,888.346 3000.98,851.462 3022.85,829.592C3079.25,773.195 3072.46,721.222 3072.71,675.983C3072.95,630.378 3078.77,589.59 3115.7,552.662C3167,501.357 3228.05,498.215 3284.45,516.844C3333.65,533.092 3378.77,566.968 3406.45,593.913C3433.14,619.896 3467.39,664.348 3484.28,713.081C3503.67,769.078 3501.31,829.848 3451.15,880.005C3412.34,918.81 3370.95,925.45 3325.39,926.444C3279.34,927.449 3227.25,920.537 3169.57,977.495C3154.39,992.478 3116.41,1034.26 3067.82,1088.52C3139.47,1172.55 3201.41,1265.11 3251.89,1364.48C3292.58,1337.89 3302.68,1301.99 3315.34,1271.62C3331.3,1233.31 3350.43,1201.08 3394.33,1182.63C3455.41,1156.95 3508.07,1175.17 3549.27,1210.22C3584.74,1240.4 3610.8,1283.84 3624.67,1315.64C3638.06,1346.32 3651.42,1394.95 3648.85,1441.26C3645.85,1495.18 3622.72,1545.6 3562.96,1570.72C3516.88,1590.08 3479.73,1581.66 3441.02,1566.91C3409.8,1555.02 3377.01,1537.14 3329.04,1547.37C3366.1,1656.21 3390.19,1771.08 3399.43,1890.11C3465.17,1893.43 3519.57,1895.6 3550.52,1895.6C3630.28,1895.6 3662.22,1854.05 3694.39,1822.24C3726.81,1790.17 3759.76,1765.43 3811.99,1765.43C3884.54,1765.43 3929.93,1806.38 3956.64,1859.44C3979.94,1905.72 3987.89,1961.57 3988.41,2000.19C3988.91,2037.44 3981.7,2093.1 3959.18,2139.49C3933.3,2192.8 3888.65,2234.1 3817.72,2234.1C3762.84,2234.1 3728.88,2209.53 3695.96,2178.02C3662.68,2146.16 3630.74,2104.44 3549.68,2103.93C3528.38,2103.8 3472.07,2106.47 3399.45,2110.48C3390.04,2232.17 3365.09,2349.53 3326.6,2460.6C3373.77,2470.97 3406.39,2453.01 3436.85,2440.78C3475.42,2425.28 3511.85,2416.36 3555.62,2434.85C3616.49,2460.57 3640.13,2511.05 3643.67,2565.21C3646.71,2611.72 3633.74,2660.82 3620.63,2693.03C3607.99,2724.1 3582.5,2767.75 3547.62,2798.39C3506.91,2834.13 3454.68,2852.92 3395.13,2827.76C3349.19,2808.35 3329.34,2775.81 3312.97,2737.69C3299.71,2706.8 3289.72,2670.51 3248.35,2643.3C3198.6,2739.9 3137.97,2830.01 3068.11,2912.01C3111.84,2960.38 3148.42,3000 3170.16,3021.74C3226.56,3078.14 3278.53,3071.35 3323.77,3071.59C3369.38,3071.84 3410.16,3077.66 3447.09,3114.58C3498.4,3165.89 3501.54,3226.93 3482.91,3283.34C3466.66,3332.54 3432.79,3377.66 3405.84,3405.33C3379.86,3432.02 3335.41,3466.28 3286.67,3483.16C3230.68,3502.56 3169.91,3500.19 3119.75,3450.04C3080.95,3411.23 3074.31,3369.84 3073.31,3324.28C3072.31,3278.23 3079.22,3226.14 3022.26,3168.46C3007.41,3153.42 2966.23,3115.97 2912.7,3068.02C2827.13,3141.52 2732.62,3204.91 2631.02,3256.35C2657.29,3293.91 2692.01,3303.63 2721.49,3315.78C2759.92,3331.63 2792.22,3350.69 2810.63,3394.5C2836.24,3455.42 2817.9,3508.06 2782.61,3549.29C2752.3,3584.69 2708.72,3610.78 2676.85,3624.68C2646.09,3638.09 2597.37,3651.53 2551.01,3649.09C2496.9,3646.24 2446.4,3623.21 2421.35,3563.61C2402.03,3517.63 2410.56,3480.48 2425.46,3441.77C2437.14,3411.44 2454.54,3379.64 2446.1,3333.88C2339.18,3369.93 2226.54,3393.48 2109.93,3402.75C2106.7,3467.01 2104.6,3520.09 2104.6,3550.52C2104.6,3630.28 2146.15,3662.22 2177.96,3694.39C2210.03,3726.81 2234.77,3759.76 2234.77,3811.99C2234.77,3884.54 2193.82,3929.93 2140.76,3956.64C2094.49,3979.94 2038.63,3987.89 2000.01,3988.41C1962.76,3988.91 1907.11,3981.7 1860.71,3959.18C1807.4,3933.3 1766.1,3888.65 1766.1,3817.72C1766.1,3762.84 1790.67,3728.88 1822.18,3695.96C1854.04,3662.68 1895.76,3630.74 1896.27,3549.68C1896.4,3528.74 1893.82,3473.98 1889.93,3403.22C1770.58,3394.24 1655.36,3370.32 1546.19,3333.38C1537.82,3378.29 1554.88,3409.86 1566.62,3439.4C1581.95,3477.97 1590.78,3514.39 1572.24,3558.26C1546.45,3619.3 1496.05,3643.04 1442.08,3646.73C1395.62,3649.9 1346.62,3637.01 1314.49,3623.94C1283.48,3611.33 1239.95,3585.86 1209.45,3550.92C1173.94,3510.24 1155.28,3458 1180.51,3398.28C1199.95,3352.26 1232.41,3332.34 1270.41,3315.85C1300.02,3303 1334.59,3293.15 1361.44,3255.67C1261.48,3204.94 1168.39,3142.61 1083.93,3070.45C1037.28,3112.66 999.176,3147.89 978.013,3169.05C921.616,3225.45 928.408,3277.42 928.16,3322.66C927.911,3368.27 922.099,3409.05 885.172,3445.98C833.867,3497.29 772.82,3500.43 716.411,3481.8C667.214,3465.55 622.098,3431.68 594.421,3404.73C567.732,3378.75 533.473,3334.3 516.592,3285.56C497.194,3229.57 499.562,3168.8 549.719,3118.64C588.524,3079.83 629.914,3073.19 675.472,3072.2C721.528,3071.19 773.619,3078.11 831.298,3021.15C845.988,3006.64 882.073,2967 928.457,2915.24C855.747,2830.44 792.954,2736.87 741.893,2636.36C706.731,2662.53 697.242,2696.28 685.245,2724.97C669.348,2762.99 650.178,2794.94 606.539,2813.28C545.451,2838.96 492.792,2820.74 451.593,2785.69C416.13,2755.51 390.062,2712.07 376.192,2680.27C362.809,2649.59 349.448,2600.96 352.02,2554.65C355.016,2500.74 378.142,2450.32 437.909,2425.2C483.656,2405.97 520.615,2414.13 559.026,2428.68C588.678,2439.92 619.634,2456.84 663.601,2450.08C627.203,2342.28 603.527,2228.63 594.379,2110.95C531.812,2107.83 480.186,2105.8 450.349,2105.8C370.591,2105.8 338.644,2147.36 306.48,2179.17C274.056,2211.24 241.105,2235.97 188.881,2235.97C116.325,2235.97 70.937,2195.03 44.222,2141.97C20.923,2095.69 12.976,2039.84 12.458,2001.21C11.959,1963.97 19.167,1908.31 41.689,1861.92C67.569,1808.6 112.214,1767.31 183.147,1767.31C238.025,1767.31 271.988,1791.88 304.905,1823.39C338.183,1855.25 370.129,1896.97 451.189,1897.48C471.783,1897.61 525.118,1895.11 594.27,1891.32C603.296,1773.71 626.821,1660.15 663.054,1552.4C619.081,1544.78 587.951,1561.81 558.79,1573.51C520.284,1588.97 483.903,1597.83 440.199,1579.37C379.325,1553.65 355.686,1503.16 352.151,1449.01C349.114,1402.5 362.082,1353.4 375.186,1321.19C387.83,1290.11 413.32,1246.46 448.203,1215.83C488.912,1180.09 541.138,1161.3 600.693,1186.45C646.476,1205.8 666.346,1238.18 682.677,1276.13C695.285,1305.43 704.806,1339.66 740.949,1366.37C792.683,1264.18 856.526,1169.13 930.573,1083.16C892.338,1041.02 860.55,1006.75 840.897,987.095C784.5,930.698 732.527,937.49 687.288,937.243C641.683,936.993 600.895,931.182 563.968,894.254C512.663,842.949 509.52,781.902 528.149,725.493C544.397,676.296 578.273,631.18 605.218,603.503C631.202,576.814 675.653,542.555 724.386,525.674C780.383,506.276 841.153,508.644 891.31,558.801C930.115,597.606 936.755,638.997 937.749,684.554C938.754,730.611 931.842,782.701 988.8,840.38C1002.42,854.172 1038.21,886.839 1085.39,929.176C1168.85,858.065 1260.72,796.537 1359.26,746.3C1332.87,707.261 1297.53,697.428 1267.59,685.082C1229.15,669.232 1196.85,650.178 1178.44,606.37C1152.84,545.449 1171.18,492.805 1206.47,451.58C1236.78,416.174 1280.35,390.09 1312.23,376.19C1342.98,362.778 1391.71,349.341 1438.07,351.781C1492.17,354.629 1542.67,377.657 1567.72,437.258C1587.05,483.236 1578.52,520.385 1563.61,559.1C1551.81,589.75 1534.16,621.912 1543.27,668.478C1653.63,630.85 1770.18,606.56 1890.97,597.566Z" style="fill:rgb(128,195,65);"/>
    </g>
    <g transform="matrix(3.07462,-5.55112e-17,-2.77556e-16,3.07462,-2589.6,-3488.58)">
        <g opacity="0.2">
            <g id="circle835" transform="matrix(-0.116546,-0.114328,0.114328,-0.116546,1222.67,2478.19)">
                <circle cx="1569" cy="2155.61" r="164.625"/>
            </g>
            <g id="circle8351" serif:id="circle835" transform="matrix(-0.116546,-0.114328,0.114328,-0.116546,1562.82,1921.71)">
                <circle cx="1569" cy="2155.61" r="164.625"/>
            </g>
            <g id="circle8352" serif:id="circle835" transform="matrix(-0.0884801,-0.0867963,0.0867963,-0.0884801,1694.04,1916.13)">
                <circle cx="1569" cy="2155.61" r="164.625"/>
            </g>
            <g id="circle8353" serif:id="circle835" transform="matrix(-0.116546,-0.114328,0.114328,-0.116546,1130.66,2346.24)">
                <circle cx="1569" cy="2155.61" r="164.625"/>
            </g>
            <g id="circle8354" serif:id="circle835" transform="matrix(-0.0899293,-0.088218,0.088218,-0.0899293,1106.81,2087.66)">
                <circle cx="1569" cy="2155.61" r="164.625"/>
            </g>
            <g id="circle8355" serif:id="circle835" transform="matrix(-0.0899293,-0.088218,0.088218,-0.0899293,1365.91,1805.2)">
                <circle cx="1569" cy="2155.61" r="164.625"/>
            </g>
            <g id="circle8356" serif:id="circle835" transform="matrix(-0.0908484,-0.0891196,0.0891196,-0.0908484,1393.65,2469.54)">
                <circle cx="1569" cy="2155.61" r="164.625"/>
            </g>
            <g id="circle8357" serif:id="circle835" transform="matrix(-0.0983842,-0.096512,0.096512,-0.0983842,1562.18,2469.63)">
                <circle cx="1569" cy="2155.61" r="164.625"/>
            </g>
            <g id="circle8358" serif:id="circle835" transform="matrix(0.109483,-0.121109,0.121109,0.109483,820.198,1526.81)">
                <circle cx="1569" cy="2155.61" r="164.625"/>
            </g>
            <g id="circle8359" serif:id="circle835" transform="matrix(0.0694196,-0.0767918,0.0767918,0.0694196,1485.78,1939.22)">
                <circle cx="1569" cy="2155.61" r="164.625"/>
            </g>
            <g id="circle83510" serif:id="circle835" transform="matrix(0.0694196,-0.0767918,0.0767918,0.0694196,1558.84,1800.27)">
                <circle cx="1569" cy="2155.61" r="164.625"/>
            </g>
            <g id="circle83511" serif:id="circle835" transform="matrix(0.000110985,-0.210606,0.210606,0.000110985,1256.74,2056.34)">
                <circle cx="1569" cy="2155.61" r="164.625"/>
            </g>
            <g id="circle83512" serif:id="circle835" transform="matrix(0.207499,2.44045e-17,-2.44045e-17,0.207499,1289.35,1520.51)">
                <circle cx="1569" cy="2155.61" r="164.625"/>
            </g>
            <g id="circle83513" serif:id="circle835" transform="matrix(0.000118022,-0.22396,0.22396,0.000118022,900.283,2291.15)">
                <circle cx="1569" cy="2155.61" r="164.625"/>
            </g>
            <g id="circle83514" serif:id="circle835" transform="matrix(0.000118022,-0.22396,0.22396,0.000118022,812.114,2079.49)">
                <circle cx="1569" cy="2155.61" r="164.625"/>
            </g>
            <g id="circle83515" serif:id="circle835" transform="matrix(0.390869,0,0,0.390869,879.314,946.282)">
                <circle cx="1569" cy="2155.61" r="164.625"/>
            </g>
            <g id="circle83516" serif:id="circle835" transform="matrix(0.199268,1.26576e-17,-1.26576e-17,0.199268,1187.67,1161.85)">
                <circle cx="1569" cy="2155.61" r="164.625"/>
            </g>
        </g>
    </g>
</svg>
